<?xml version="1.0" standalone="no"?><!DOCTYPE svg PUBLIC "-//W3C//DTD SVG 1.1//EN" "http://www.w3.org/Graphics/SVG/1.1/DTD/svg11.dtd"><svg t="1594538673216" class="icon" viewBox="0 0 2550 1024" version="1.1" xmlns="http://www.w3.org/2000/svg" p-id="23923" xmlns:xlink="http://www.w3.org/1999/xlink" width="498.046875" height="200"><defs><style type="text/css"></style></defs><path d="M716.501366 828.102098l67.283295 138.448319v3.105383l8.798585 11.903968c9.057367 12.421531 11.645186 16.044478 111.793783 16.044478a41.146323 41.146323 0 0 1 40.111195 25.87819h-159.409653l-182.700026-284.660096a1528.883498 1528.883498 0 0 0 258.781906-103.512762 177.524387 177.524387 0 0 0 60.296184-58.743493 277.414203 277.414203 0 0 0 29.242355 17.079606z m738.304776 155.269143l119.298458 1.552691a51.756381 51.756381 0 0 1 42.699015 32.865302h-189.169573V638.414961H1552.884484v84.104119l42.181451 41.922669z m415.344958-449.245388l-82.810209 155.269143 190.2047 296.564064h108.170837c13.715441 0 29.501137 13.715441 43.47536 30.795047h-199.003286L1610.851631 698.711145v-223.846348a28.983573 28.983573 0 0 0-29.242355-29.501138A29.501137 29.501137 0 0 0 1552.884484 474.864797v103.512762H1159.018424c-144.400303 0-214.5302-59.002274-215.306545-59.519839a217.376801 217.376801 0 0 0 1.811473-88.503411 29.501137 29.501137 0 0 0-57.708365 12.680313s18.114733 93.420268-59.519838 140.777357c-92.126358 55.896892-355.048774 133.013899-357.895375 134.049027l-19.926207 6.728329v232.903715l93.161486 28.983574a51.756381 51.756381 0 0 1 42.699014 32.865302H396.129367V623.664392l173.383876-127.320697-42.440232-21.73768a86.95072 86.95072 0 0 1-39.33485-48.133435 111.793783 111.793783 0 0 1 17.855952-86.95072 29.242355 29.242355 0 0 0-10.610058-40.111195 29.501137 29.501137 0 0 0-40.369978 10.610058 166.396765 166.396765 0 0 0-23.290371 132.755117A133.272681 133.272681 0 0 0 466.000481 499.966641L336.609528 595.198383v103.512762c-2.329037 9.574931-32.60652 128.097043-155.269143 128.097043-69.871114 0-160.185999-129.390953-178.818297-228.245641-5.175638-31.830174-2.329037-56.932019 8.02224-60.554965 28.724792-11.645186 49.168562 21.996462 84.621683 101.442506 27.430882 61.848875 53.826636 120.333586 105.841799 120.333587 64.954258 0 86.174375-101.442507 118.263331-254.641395 21.220116-102.218853 45.545615-217.894364 83.845337-289.059389 76.340662-142.071266 123.697751-142.071266 383.256002-141.553702h31.053829c323.477382 0 732.870356-8.022239 845.699267-45.545616C1749.29995 0 1984.791484 46.839525 2068.37804 67.283295a30.277483 30.277483 0 0 0 20.702552-3.105382l10.86884 30.277483a29.242355 29.242355 0 0 0 37.523377 18.114733 29.759919 29.759919 0 0 0 17.855951-37.782158L2128.674224 0l77.634572 23.290371 41.922668 32.347739 185.546626 103.512762v92.126358l116.71064 127.57948-146.729341 117.228203L2251.595629 385.585039c-14.750569-15.268132-63.660349-45.545615-185.805408 25.878191s-187.616881 116.451857-190.463483 118.263331z" p-id="23924"></path></svg>