<?xml version="1.0" standalone="no"?><!DOCTYPE svg PUBLIC "-//W3C//DTD SVG 1.1//EN" "http://www.w3.org/Graphics/SVG/1.1/DTD/svg11.dtd"><svg t="1594539993954" class="icon" viewBox="0 0 1024 1024" version="1.1" xmlns="http://www.w3.org/2000/svg" p-id="2325" xmlns:xlink="http://www.w3.org/1999/xlink" width="200" height="200"><defs><style type="text/css"></style></defs><path d="M324.96 307.51a18.65 18.65 0 1 0 37.3 0 18.65 18.65 0 1 0-37.3 0zM520.708 320.7a18.65 18.65 0 1 0 26.375-26.375 18.65 18.65 0 1 0-26.375 26.376zM445.71 420.17c13.62 12.18 31.29 18.19 53.71 18.19 5.16 0 10.58-0.32 16.25-0.95 10.98-1.23 18.88-11.12 17.65-22.1s-11.11-18.89-22.1-17.65c-18.36 2.05-31.07-0.33-38.85-7.3-6.17-5.52-10.26-14.72-12.23-27.44h1.11c11.05 0 20-8.95 20-20s-8.95-20-20-20h-44.98c-11.05 0-20 8.95-20 20s8.95 20 20 20h1.11c-1.98 12.73-6.06 21.93-12.23 27.45-7.78 6.96-20.49 9.35-38.85 7.3-10.97-1.23-20.87 6.68-22.1 17.65-1.23 10.98 6.68 20.87 17.65 22.1 5.67 0.63 11.09 0.95 16.25 0.95 22.42 0 40.09-6 53.71-18.19 2.49-2.23 4.81-4.64 6.95-7.22 2.15 2.57 4.46 4.98 6.95 7.21z" p-id="2326"></path><path d="M738.76 666.06c-11.05 0-20 8.95-20 20s8.95 20 20 20c59.07 0 107.12 48.06 107.12 107.12S797.82 920.3 738.76 920.3H628.09c1.06-1.21 2.12-2.43 3.15-3.68 33.15-40.09 44.6-94.53 30.63-145.63l-71.22-260.43c12.04-7.22 23.47-15.35 34.15-24.35 21.2-17.86 38.41-38.24 51.29-60.35l47.26 4.78c0.41 0.04 0.82 0.06 1.22 0.06 6.08 0 11.3-4.61 11.92-10.79 0.67-6.59-4.14-12.48-10.73-13.15l-38.12-3.86c9.82-23 15.25-47.45 15.92-72.62l39.16-11.24c6.37-1.83 10.05-8.47 8.22-14.84s-8.47-10.05-14.84-8.23l-33.44 9.6c-3.36-33.66-15.42-66.17-35.43-95.26 0.13-12.51 0.54-36.89 0.93-60.6 0.5-29.72 0.96-57.79 0.96-66.06a20 20 0 0 0-12.35-18.48 20.02 20.02 0 0 0-21.8 4.34c-13.94 13.94-25.57 28.42-35.83 41.19-6.17 7.68-14.14 17.6-19.31 22.62-42.21-22.72-90.81-34.69-141.08-34.69s-98.87 11.97-141.08 34.69c-5.18-5.02-13.14-14.94-19.31-22.62-10.26-12.77-21.89-27.25-35.83-41.19-5.72-5.72-14.32-7.43-21.8-4.34s-12.35 10.39-12.35 18.48c0 8.27 0.47 36.34 0.96 66.06 0.4 23.71 0.8 48.09 0.93 60.6-20.01 29.09-32.07 61.6-35.43 95.26l-33.44-9.6c-6.37-1.83-13.02 1.85-14.84 8.23-1.83 6.37 1.85 13.02 8.23 14.84l39.16 11.24c0.67 25.17 6.1 49.62 15.92 72.62l-38.12 3.86c-6.59 0.67-11.4 6.55-10.73 13.15 0.62 6.18 5.84 10.79 11.92 10.79 0.4 0 0.81-0.02 1.22-0.06l47.26-4.78c12.88 22.11 30.09 42.49 51.29 60.35 10.68 9 22.1 17.12 34.14 24.35l-71.22 260.43c-13.98 51.1-2.53 105.54 30.63 145.63 23.3 28.17 52.23 43.68 81.48 43.68h411.01c81.12 0 147.12-66 147.12-147.12s-65.98-147.12-147.11-147.12zM246.32 421.32l58.37-5.9c6.59-0.67 11.4-6.55 10.73-13.15-0.67-6.59-6.56-11.4-13.15-10.73l-70.07 7.09c-9.19-17.64-15.18-36.68-17.36-56.62l85.91 24.65c1.11 0.32 2.22 0.47 3.32 0.47 5.22 0 10.02-3.43 11.53-8.69 1.83-6.37-1.85-13.02-8.23-14.84l-93.25-26.76c1.65-31.26 12.74-61.65 32.34-88.37 2.52-3.43 3.87-7.58 3.87-11.83 0-8.61-0.48-37.25-0.98-67.58l-0.18-10.82c8.11 10.09 15.24 18.79 22.1 25.11 17.23 15.87 31.06 13.33 39.63 8.4 37.67-21.66 81.89-33.11 127.86-33.11s90.19 11.45 127.86 33.11c8.57 4.93 22.4 7.47 39.63-8.4 6.86-6.32 13.98-15.02 22.1-25.11l-0.18 10.82c-0.51 30.33-0.98 58.97-0.98 67.58 0 4.26 1.36 8.4 3.87 11.83 19.6 26.72 30.7 57.12 32.35 88.37l-93.25 26.76c-6.37 1.83-10.05 8.47-8.22 14.84 1.51 5.27 6.31 8.69 11.53 8.69 1.1 0 2.21-0.15 3.32-0.47l85.91-24.65c-2.19 19.94-8.17 38.98-17.36 56.62l-70.07-7.09c-6.58-0.66-12.48 4.14-13.15 10.73-0.67 6.59 4.14 12.48 10.73 13.15l58.37 5.9c-39.45 53.93-110.95 90.04-192.44 90.04s-153.01-36.11-192.46-90.04z m272.22 498.99V756.39c0-11.05-8.95-20-20-20s-20 8.95-20 20v163.92h-79.56V756.39c0-11.05-8.95-20-20-20s-20 8.95-20 20v163.92h-31.23c-23.08 0-41.64-18.28-50.65-29.18-24.86-30.07-33.41-71.03-22.87-109.59l69.1-252.67c35.54 14.71 74.8 22.49 115.43 22.49s79.89-7.78 115.43-22.49l69.1 252.67c10.54 38.56 1.99 79.52-22.87 109.59-9.01 10.9-27.58 29.18-50.65 29.18h-31.23z" p-id="2327"></path></svg>