<?xml version="1.0" standalone="no"?><!DOCTYPE svg PUBLIC "-//W3C//DTD SVG 1.1//EN" "http://www.w3.org/Graphics/SVG/1.1/DTD/svg11.dtd"><svg t="1594538496244" class="icon" viewBox="0 0 1024 1024" version="1.1" xmlns="http://www.w3.org/2000/svg" p-id="19969" xmlns:xlink="http://www.w3.org/1999/xlink" width="200" height="200"><defs><style type="text/css"></style></defs><path d="M317.30688 470.48704l-18.57536 77.96736c82.0224-2.1504 117.02272-21.36064 240.5888-119.62368 123.5968-98.24256 108.27776-266.99776 108.27776-266.99776 38.28736-9.61536 62.34112-37.38624 62.34112-37.38624-95.16032-97.1776-147.64032 0-147.64032 0h-21.87264c-60.16-33.10592-168.42752-14.9504-168.42752-14.9504-16.40448-95.04768-123.22816-19.22048-123.22816-19.22048 3.65568 32.768 47.4112 27.05408 47.4112 27.05408l0.0512 0.08192c-6.59456 85.2992-35.49184 126.76096-63.21152 146.87232-31.60064-3.16416-53.504-6.32832-53.504-6.32832-14.58176-50.20672-47.02208-43.79648-47.02208-43.79648-52.49024 4.27008-54.6816 142.04928 0 206.1312 54.6816 64.08192 184.81152 50.19648 184.81152 50.19648z m109.91616-244.04992c0.8192-17.08032 8.67328-24.9344 18.5856-28.07808 1.08544 0.64512 2.1504 1.26976 3.1744 1.8944 12.6464 7.65952 11.96032 38.12352 11.96032 38.12352-1.92512 8.59136-9.39008 15.07328-20.70528 19.88608-8.36608-4.608-13.85472-14.05952-13.01504-31.82592zM321.6896 213.0944c15.3088-9.08288 28.9792-8.01792 28.9792 30.96576 0 13.35296-10.6496 21.44256-24.65792 26.3168a847.4624 847.4624 0 0 1-5.0176-0.14336c-6.31808-17.9712-11.12064-50.1248 0.69632-57.1392z m-36.4544 277.34016l-74.36288-5.70368s-26.24512 37.02784-27.71968 59.81184c-1.45408 22.77376-13.1072 79.73888 46.66368 59.8016 59.79136-19.93728 55.41888-113.90976 55.41888-113.90976z m304.76288-81.17248s-81.65376 109.63968-231.85408 158.06464c0 0-68.53632 156.64128-84.57216 199.3728-16.04608 42.7008-43.74528 113.92-14.58176 138.12736 29.15328 24.20736 112.18944-108.2368 142.1312-185.1392l16.98816 11.40736s-65.792 112.4864-55.58272 155.20768c10.19904 42.73152 51.34336 81.95072 106.43456-62.64832l23.33696-61.2352s10.19904 75.4688 81.64352 111.06304c0 0 29.184-148.0704 144.36352-108.20608 0 0-118.10816 0-112.27136 116.76672 0 0-99.15392 18.5856-99.15392 43.4688s5.82656 56.61696 293.09952 19.18976c87.49056-11.39712 45.19936-165.1712 14.58176-213.6064-30.62784-48.42496-202.69056-226.42688-224.5632-321.8432z m344.12544 202.20928c-32.08192 34.18112-125.39904 76.9024-125.39904 76.9024 29.5936 11.6224 37.91872 72.62208 37.91872 72.62208 15.23712 3.47136 24.7808 0 24.7808 0 90.4192-41.29792 62.69952-149.52448 62.69952-149.52448z" p-id="19970"></path></svg>