<?xml version="1.0" standalone="no"?><!DOCTYPE svg PUBLIC "-//W3C//DTD SVG 1.1//EN" "http://www.w3.org/Graphics/SVG/1.1/DTD/svg11.dtd"><svg t="1594538022593" class="icon" viewBox="0 0 1024 1024" version="1.1" xmlns="http://www.w3.org/2000/svg" p-id="3485" xmlns:xlink="http://www.w3.org/1999/xlink" width="200" height="200"><defs><style type="text/css"></style></defs><path d="M860.3 404.8l-153.2-27.1s7.6 30 7.5 57.5c0 37.2 0.4 99.3 0.4 151.9 0 53.6-136.1 54.6-135.2-1.5 0.2-39.2-0.2-62.8-0.2-62.8 0.3-5.2 4.5-9.3 9.8-9.3 5.4 0 9.9 4.4 9.9 9.8 0 0 0.5 29.2 0.4 60.4 0 32.8 94.3 35.8 95.4 0.3 0.3-19.1 0.8-80 0.2-165.9-0.7-86.3-102-80.6-102-80.6h-98.9c-39.2 0-124.3 23.3-124.3 163.1v260.6c0 14.2-34.1 25.6-47.8 25.6s-24.8-11.5-24.8-25.6v-65.4c0-19.4-14.1-35.1-31.4-35.1-17.4 0-31.5 15.7-31.5 35.1v55.7c0 0.5 0.1 1 0.1 1.6 0 0.9-0.1 1.8-0.1 2.7 0 49.7 64 90 114.5 90s91.5-40.3 91.5-90c0-1.7-0.1-3.3-0.2-5 0.1-0.9 0.2-1.9 0.2-2.9v-50.1c0-16.1 13.8-29.2 30.8-29.2s30.8 13.1 30.8 29.2v167.7c0 11.8 9.5 21.3 21.3 21.3l122.2-10.6c11.8 0 21.3-9.5 21.3-21.3v-122h0.4c1.5-6.3 7.1-11 13.8-11H791c6.7 0 12.4 4.7 13.8 11h0.4V846c0 11.7 9.5 21.3 21.3 21.3L955.9 885c11.8 0 21.3-9.5 21.3-21.3V732.9h0.3V525.4c0-81.9-78-120.6-117.2-120.6z m-371.7 37.8c-1.9 2.3-4.2 4.8-7 7.5-3-2.9-7.1-4.6-11.6-4.6-9.3 0-16.8 7.5-16.8 16.8 0 2.5 0.6 4.9 1.6 7-5 2.2-9.9 3.6-14.4 3.4-8.1-0.4-6.9-11.2-3.9-22 3.9-14.2 18.2-22.3 32-22.9 14.9-0.7 27.9 5.2 20.1 14.8z m0 0" p-id="3486"></path><path d="M874.4 406.2l-167.2-28.5s7.5 27.8 7.5 57.5l0.2 154.9s-2.3 35.9-67.5 37.4-69.8-40.6-67.5-41.9l-0.2-62.8s0.9-8.8 9.9-9.3c9-0.6 9.9 9.8 9.9 9.8l0.6 62.4s3.8 23.9 48.4 23.7c44.6-0.1 46.4-22.1 46.4-22.1l0.5-172.8s2.5-57.4-63-72.9c0 0-7.8-4.3-30.9-4.3l-113.7-0.1s-99.4 3-114.7 121.9c0 0-2.7 21.5-2.8 36.9 0 15.3 3.6 260.7-0.2 268.2-2.2 5.6-8.7 18.3-44.3 22.3 0 0-22.4 3-27.8-22.4l-0.5-73.3s-2.2-27.8-31.1-30.2c0 0-26.8 0-31.5 30.2l1 78.1s5.4 47.5 52.6 68.6C348.7 863 399 832 404.9 827.1c5.9-4.8 29.5-22.2 34.5-56.2 0 0 1.3-1.9 1.3-30.7l0.4-46.9s4.7-23.9 30.4-24.7c25.7-0.8 30.4 24.7 30.4 24.7v174.5s5.5 23.1 26.5 18.5l121-10.5s17.7-3.7 17.7-21v-122s3.6-11 14.2-11 111.8 0.2 111.8 0.2 8.4 1 12.1 10.9c3.8 9.8-0.4 0-0.4 0l0.5 115.7s1.6 20.2 27.1 19.6L933 882l22.8 3.1s20.9-2.4 21.3-21.3V516.3c0.1 0-3.8-88.7-102.7-110.1z m-384.3 34.1l-8.5 9.8c-9.9-8.7-21.1-1.7-21.1-1.7-11.8 7.4-5.7 20.8-5.7 20.8l-9.8 3.1c-5.5 1.4-9.5-2.4-9.5-2.4-4.2-15.6 6.3-29.7 6.3-29.7 17-18.4 40.8-11 40.8-11 11.7 3.8 7.5 11.1 7.5 11.1z m0 0" p-id="3487"></path><path d="M46.3 378c0 5.1 2.7 9.7 7.1 12.3 4.4 2.5 9.8 2.5 14.2 0 4.4-2.5 7.1-7.2 7.1-12.3 0-5.1-2.7-9.7-7.1-12.3-4.4-2.5-9.8-2.5-14.2 0-4.4 2.5-7.1 7.2-7.1 12.3z m0 0M442.7 280.3c0 5.1 2.7 9.7 7.1 12.3 4.4 2.5 9.8 2.5 14.2 0 4.4-2.5 7.1-7.2 7.1-12.3 0-5.1-2.7-9.7-7.1-12.3-4.4-2.5-9.8-2.5-14.2 0-4.4 2.6-7.1 7.2-7.1 12.3z m0 0" p-id="3488"></path><path d="M266.8 647.1c-6 0-10.7-4.7-10.7-10.7V343.6c0-50.4-41-91.5-91.5-91.5-50.4 0-91.5 41-91.5 91.5 0 6-4.7 10.7-10.7 10.7-5.9 0-10.7-4.6-11-10.6v-0.1c0-62.3 50.7-113 113-113 32.2 0 63 13.9 84.5 38.1l7 7.9V249c0-62.3 46.5-113 103.6-113 57.1 0 103.6 50.7 103.6 113 0 6-4.7 10.7-10.7 10.7-6 0-10.7-4.7-10.7-10.7 0-50.4-36.8-91.5-82.1-91.5s-82.1 41-82.1 91.5v78.7l6.4-4.8c11.1-8.3 24.2-12.7 37.9-12.7 36.3 0 65.8 31.3 65.8 69.7 0 6-4.7 10.7-10.7 10.7-6 0-10.7-4.7-10.7-10.7 0-26.6-19.7-48.2-44-48.2-24.4 0-44.3 21.6-44.3 48.2v256.5c-0.4 6-5.1 10.7-11.1 10.7z" p-id="3489"></path></svg>