<?xml version="1.0" standalone="no"?><!DOCTYPE svg PUBLIC "-//W3C//DTD SVG 1.1//EN" "http://www.w3.org/Graphics/SVG/1.1/DTD/svg11.dtd"><svg t="1594538241766" class="icon" viewBox="0 0 1116 1024" version="1.1" xmlns="http://www.w3.org/2000/svg" p-id="7327" xmlns:xlink="http://www.w3.org/1999/xlink" width="217.96875" height="200"><defs><style type="text/css"></style></defs><path d="M100.707845 695.261993a57.336114 57.336114 0 0 1-9.364351 18.728702L71.629071 673.576127l-17.742981 29.571635-11.171506 18.235841c-1.150008-8.37863-2.300016-16.428686-3.450024-25.957324L32.857372 651.890262 5.914327 686.226215s-2.135729 2.62859-5.25718 6.900048a65.714744 65.714744 0 0 1 1.971443-27.107332 55.693246 55.693246 0 0 1 65.714744-41.071715A47.643189 47.643189 0 0 1 98.572116 650.90454a60.457565 60.457565 0 0 1 2.135729 44.357453z m-0.985721 235.587357a444.560244 444.560244 0 0 1 19.550137-85.26488 512.410717 512.410717 0 0 0 4.600032 62.75758C129.78662 949.578052 141.615274 975.206803 160.343976 985.721162a38.771699 38.771699 0 0 0 20.042997 5.75004 38.771699 38.771699 0 0 0 4.764319 0v31.214503c-59.471843-4.107172-85.429167-32.528798-85.429168-91.836355zM940.706562 305.57356l-9.857212 4.764319s-55.528959 25.62875-96.107813-1.478582c-36.964544-24.807316-31.871651-52.243222-31.37879-55.200385a18.892989 18.892989 0 0 0-13.307236-22.835873 18.564415 18.564415 0 0 0-22.835874 13.307235c0 2.300016-13.964383 55.364672 46.821756 95.943527a123.379432 123.379432 0 0 0 88.38633 16.428686c0 1.150008 0 1.971442 1.150008 2.957163 17.907268 27.435906 64.071876 109.415049 64.071876 157.551099a410.717151 410.717151 0 0 1-25.300177 115.000802l-27.435905-78.364832-13.800096 65.714744c0 2.300016-11.828654 58.157549 11.171506 172.336917C934.627948 903.577731 952.86379 991.471202 1014.471362 991.471202a28.093053 28.093053 0 0 1 23.985882 12.814375h-117.136532v-36.800257L778.06257 739.290871l-128.143751 64.236163c-26.778758-43.536018-87.40061-64.729023-90.686347-65.714745a18.728702 18.728702 0 0 0-23.657308 11.828654 18.400128 18.400128 0 0 0 11.664368 22.5073s78.036259 27.764479 78.036258 73.107653c0 40.085994-58.486122 82.14343-81.157709 94.136371l-30.88593 16.428686 31.707364 16.428686a260.230387 260.230387 0 0 0 108.922189 18.728702 46.657468 46.657468 0 0 1 46.986042 32.857372H222.608696v-126.500882a173.486924 173.486924 0 0 1 128.965185-166.42259c103.829296-29.735922 186.465586-170.365474 190.572758-176.279801l11.828654-20.207284-39.428847-12.485801a120.257982 120.257982 0 0 0 30.064496-85.757741c0-70.64335 48.300337-184.329857 49.286058-185.479865l7.557195-20.700145-23.657307-5.75004a182.522702 182.522702 0 0 0 67.521899-73.271939 276.987646 276.987646 0 0 1 111.715065-106.293599L782.826889 32.857372 753.255254 7.228622A523.910797 523.910797 0 0 1 805.005615 2.135729h16.428686c51.093214-2.62859 79.350554-4.107172 132.90807 23.821595 35.978822 18.728702 65.714744 32.857372 85.429168 40.743141l-42.714584 45.0146 40.578854 77.543398v39.593133l9.035778 5.421467c35.814536 21.357292 68.671908 51.2575 69.329055 62.75758s-36.143109 46.821755-76.721964 77.050538z" p-id="7328"></path></svg>