<?xml version="1.0" standalone="no"?><!DOCTYPE svg PUBLIC "-//W3C//DTD SVG 1.1//EN" "http://www.w3.org/Graphics/SVG/1.1/DTD/svg11.dtd"><svg t="1594538565110" class="icon" viewBox="0 0 1024 1024" version="1.1" xmlns="http://www.w3.org/2000/svg" p-id="22650" xmlns:xlink="http://www.w3.org/1999/xlink" width="200" height="200"><defs><style type="text/css"></style></defs><path d="M829.952 352.256c-4.7104-21.03296-12.41088-41.90208-25.23136-60.23168a119.45984 119.45984 0 0 0-23.08096-24.576 104.6528 104.6528 0 0 0-29.94176-16.384 112.64 112.64 0 0 0-67.584-1.45408 122.88 122.88 0 0 0-57.93792 35.86048c-2.048 2.048-3.76832 4.46464-5.61152 6.73792s-3.4816 4.7104-5.0176 7.22944-3.03104 5.05856-4.48512 7.63904-2.70336 5.28384-3.7888 8.04864a99.2256 99.2256 0 0 0-7.7824 34.816 104.57088 104.57088 0 0 0 0.83968 17.92 112.82432 112.82432 0 0 0 3.7888 17.38752 135.96672 135.96672 0 0 0 14.336 31.78496c1.55648 2.43712 3.03104 4.8128 4.68992 7.2704s3.54304 4.93568 5.44768 7.24992a126.13632 126.13632 0 0 0 12.288 12.88192 214.40512 214.40512 0 0 0 26.86976 20.48c18.24768 12.02176 36.31104 22.1184 52.03968 33.83296s28.9792 24.86272 37.90848 40.48896 13.9264 33.3824 15.7696 52.14208a215.38816 215.38816 0 0 1 0.67584 28.672c0 2.43712-0.26624 4.87424-0.4096 7.29088s-0.34816 4.64896-0.63488 6.94272c-0.53248 4.608-1.20832 9.17504-2.17088 13.66016A131.33824 131.33824 0 0 1 749.568 697.69216a136.92928 136.92928 0 0 1-39.03488 36.864 158.45376 158.45376 0 0 1-90.64448 24.02304 159.90784 159.90784 0 0 0 44.27776-89.088q1.31072-13.90592 1.59744-28.0576v-0.14336-8.192a389.69344 389.69344 0 0 0-26.33728-141.312 385.536 385.536 0 0 0-16.5888-36.864q-6.79936-13.29152-14.60224-25.96864a393.216 393.216 0 0 0-40.69376-54.92736c-3.6864-4.096-7.43424-8.192-11.28448-12.1856q-11.776-12.288-24.576-23.40864a129.92512 129.92512 0 0 1-58.51136 51.32288 167.81312 167.81312 0 0 0 43.008-136.97024v-0.14336a175.63648 175.63648 0 0 0-1.18784-7.43424v-0.16384a58.14272 58.14272 0 0 0-5.77536-15.19616A59.6992 59.6992 0 0 0 478.74048 202.752a59.16672 59.16672 0 0 0-20.23424-4.096 107.25376 107.25376 0 0 0-23.36768 4.096A107.52 107.52 0 0 0 370.688 253.952q-15.72864-3.97312-31.9488-6.61504a385.82272 385.82272 0 0 0-43.8272-4.68992q-9.89184-0.512-19.92704-0.512a395.07968 395.07968 0 0 0-45.056 2.58048h-0.14336l-3.7888 0.45056h-0.2048a21.11488 21.11488 0 0 0-19.08736 21.83168c0.14336 2.43712 0.3072 4.85376 0.53248 7.29088a283.52512 283.52512 0 0 0 81.48992 175.9232c6.144 6.0416 10.56768 13.59872 15.09376 20.8896a111.32928 111.32928 0 0 1-0.9216 118.94784 112.0256 112.0256 0 0 1-6.61504 9.17504 67.584 67.584 0 0 0-4.64896 5.46816 11.1616 11.1616 0 0 0-1.10592 5.14048 12.65664 12.65664 0 0 0 16.384 12.0832c1.57696-0.83968 3.11296-1.76128 4.64896-2.68288a138.15808 138.15808 0 0 0 42.04544-39.97696c0.7168 3.11296 1.41312 6.26688 2.048 9.4208a301.056 301.056 0 0 1 5.87776 59.392q0 13.76256-1.2288 27.2384a77.27104 77.27104 0 0 0-18.06336 78.7456 77.14816 77.14816 0 0 0 7.7824 16.384q-2.62144-0.512-5.28384-0.9216c-2.7648-0.43008-5.55008-0.77824-8.37632-1.024q-6.63552-0.65536-13.45536-0.63488a31.76448 31.76448 0 0 0-31.62112 28.672h86.34368c0.75776 0.47104 1.536 0.98304 2.33472 1.45408a178.42176 178.42176 0 0 0 53.248 22.03648 180.51072 180.51072 0 0 0 131.7888-19.2512 171.13088 171.13088 0 0 0 35.45088 7.45472 201.54368 201.54368 0 0 0 71.29088-5.69344 204.94336 204.94336 0 0 0 64.53248-29.32736 182.272 182.272 0 0 0 49.90976-51.03616 173.24032 173.24032 0 0 0 16.26112-31.98976 178.33984 178.33984 0 0 0 9.27744-34.38592c0.98304-5.8368 1.6384-11.6736 2.048-17.5104 0.24576-2.92864 0.32768-5.85728 0.47104-8.74496s0-5.632 0-8.43776a253.41952 253.41952 0 0 0-2.31424-34.14016 186.75712 186.75712 0 0 0-8.192-34.11968 148.19328 148.19328 0 0 0-38.13376-59.67872 201.68704 201.68704 0 0 0-26.8288-21.42208c-18.55488-12.55424-37.6832-22.09792-54.92736-32.4608a183.95136 183.95136 0 0 1-23.8592-16.56832 98.52928 98.52928 0 0 1-9.87136-9.46176c-1.51552-1.65888-2.90816-3.39968-4.23936-5.14048s-2.72384-3.87072-4.096-5.79584a108.87168 108.87168 0 0 1-12.53376-24.90368 89.00608 89.00608 0 0 1-3.46112-13.2096 80.2816 80.2816 0 0 1-1.18784-13.43488 78.49984 78.49984 0 0 1 18.59584-50.176 101.43744 101.43744 0 0 1 46.51008-31.35488 93.696 93.696 0 0 1 56.25856-1.10592 86.38464 86.38464 0 0 1 25.55904 12.65664A103.2192 103.2192 0 0 1 792.576 301.056c11.96032 15.68768 19.968 34.57024 25.1904 54.21056a6.30784 6.30784 0 0 0 12.288-3.01056z m-519.9872-56.70912a16.384 16.384 0 1 1 16.384-16.384 16.384 16.384 0 0 1-16.384 16.44544z m86.97856-34.07872q-6.94272-2.27328-13.96736-4.3008a109.75232 109.75232 0 0 1 19.92704-25.02656 107.99104 107.99104 0 0 1 14.68416-11.53024c0.83968-0.57344 1.67936-1.1264 2.53952-1.65888a48.41472 48.41472 0 0 1 71.68 28.18048 47.49312 47.49312 0 0 1 1.80224 12.51328v0.2048a3.93216 3.93216 0 0 1 0 0.49152 47.53408 47.53408 0 0 1-0.4096 6.144 77.12768 77.12768 0 0 1-11.91936 34.38592c-1.72032-1.08544-3.46112-2.048-5.20192-3.1744q-10.93632-6.57408-22.30272-12.45184a390.77888 390.77888 0 0 0-56.832-23.71584z" p-id="22651"></path></svg>