<?xml version="1.0" standalone="no"?><!DOCTYPE svg PUBLIC "-//W3C//DTD SVG 1.1//EN" "http://www.w3.org/Graphics/SVG/1.1/DTD/svg11.dtd"><svg class="icon" width="200px" height="200.00px" viewBox="0 0 1024 1024" version="1.1" xmlns="http://www.w3.org/2000/svg"><path fill="#333333" d="M1022.5664 308.0192c-2.048-5.5296-6.3488-9.8304-11.6736-12.0832l-90.9312-36.6592c-5.7344-29.4912-28.0576-52.8384-56.7296-60.416l-4.9152-56.5248c-0.6144-8.192-6.3488-15.36-14.1312-18.0224-7.7824-2.6624-16.5888-0.4096-22.1184 5.7344L798.72 156.0576l-14.336-50.5856c-2.4576-8.6016-10.24-14.7456-19.456-15.1552-9.0112-0.4096-17.2032 5.3248-20.2752 13.7216l-107.9296 297.5744-399.5648 18.6368c-81.92 4.9152-159.5392-38.912-197.632-111.616-5.3248-10.24-18.0224-14.1312-28.2624-8.8064-10.24 5.3248-14.1312 18.0224-8.8064 28.2624 33.9968 65.1264 94.4128 110.7968 163.6352 127.3856-7.168 8.3968-22.528 29.0816-31.744 61.8496-9.8304 35.4304-13.312 91.9552 22.7328 163.84l-58.5728 79.4624c-3.4816 4.7104-4.7104 10.4448-3.6864 16.1792l25.8048 139.6736c1.8432 9.8304 10.4448 16.9984 20.48 16.9984h26.2144c6.144 0 12.0832-2.6624 15.9744-7.5776 3.8912-4.7104 5.5296-11.0592 4.5056-17.2032l-16.384-89.7024 172.6464-129.6384c0.2048-0.2048-0.2048 0.2048 0 0 16.5888-13.9264 28.4672-29.0816 37.0688-44.8512 89.9072 15.7696 213.1968 37.2736 292.0448 49.9712l34.816 221.184c1.6384 10.24 10.4448 17.6128 20.6848 17.6128h21.504c11.4688 0 20.8896-9.4208 20.8896-20.8896V688.3328c19.6608-13.312 26.624-35.84 31.3344-57.7536 0.2048-0.6144 46.4896-214.4256 46.4896-214.4256 8.8064 1.4336 17.6128 2.2528 26.4192 2.2528 61.2352 0 117.1456-35.84 146.2272-93.3888 2.8672-5.3248 3.2768-11.4688 1.024-16.9984z" /></svg>