<?xml version="1.0" standalone="no"?><!DOCTYPE svg PUBLIC "-//W3C//DTD SVG 1.1//EN" "http://www.w3.org/Graphics/SVG/1.1/DTD/svg11.dtd"><svg t="1594538657801" class="icon" viewBox="0 0 1490 1024" version="1.1" xmlns="http://www.w3.org/2000/svg" p-id="23559" xmlns:xlink="http://www.w3.org/1999/xlink" width="291.015625" height="200"><defs><style type="text/css"></style></defs><path d="M23.178506 799.941112l13.379462 72.173721 59.736474-28.8318L113.065881 896.989326l64.447553-23.555392C123.241811 926.763342 40.89216 950.884063 0 959.929334a820.29297 820.29297 0 0 1 23.178506-159.988222zM603.018035 1009.112992h-66.520427l-43.907251-173.179242H508.796467L590.203901 753.772543l-16.017666 226.131763z m481.472212 12.62569l-18.844314-239.511225 61.809349-72.173721-4.711079 263.82039 25.25138 48.241443z m247.61428-734.928229L1133.673905 636.937799 961.059993 840.267943v154.711814l28.831799 29.020243H919.602503V637.503128H645.606183L489.952153 792.968715h-18.844313a20.351859 20.351859 0 0 0-11.683475 0h-87.814501l38.819286 188.443136 28.8318 28.8318h-69.347074l-50.879647-200.315053 100.440191-113.065882v-226.131763a21.482517 21.482517 0 0 0-42.776592 0s-14.887008 67.839529-17.902097 75.377255C358.041958 546.485094 279.46117 742.654398 207.287449 839.891056l-79.899889 29.208686-18.844314-55.590725-56.532941 26.947369-15.829223-86.683843c28.454914-88.191388 78.392344-183.543614 166.395289-250.064041 150.754509-113.065881 279.272727-133.41774 403.268311-152.262054A1212.06625 1212.06625 0 0 0 763.760029 320.353331c193.5311-56.532941 205.968347-67.274199 239.322783-116.457858a403.456754 403.456754 0 0 1 26.947368-37.688627 250.064041 250.064041 0 0 1 125.691572-82.538094l17.148325-3.580419V0l68.027972 81.030548h104.962827l60.867133 80.088333h84.045638l-5.653294 18.844314L1252.016194 226.131763l-44.47258 121.922709a10.552816 10.552816 0 0 0 6.407067 13.756349 7.726169 7.726169 0 0 0 3.580419 0 10.929702 10.929702 0 0 0 10.17593-7.160839L1268.222304 244.976077l209.548767-42.588149L1469.856459 226.131763z" p-id="23560"></path></svg>